<?xml version="1.0"?>
<svg xmlns="http://www.w3.org/2000/svg" viewBox="0 0 512 512" width="512" height="512"><g id="outline"><circle cx="64" cy="296" r="8"/><circle cx="64" cy="344" r="8"/><circle cx="64" cy="392" r="8"/><circle cx="64" cy="440" r="8"/><circle cx="456" cy="296" r="8"/><circle cx="456" cy="344" r="8"/><circle cx="456" cy="392" r="8"/><circle cx="456" cy="440" r="8"/><path d="M479.945,23.065a8,8,0,0,0-13.6-4.722A143.616,143.616,0,0,0,424,120.269,215.546,215.546,0,0,0,256,40,215.279,215.279,0,0,0,108.938,97.8l-4.956-74.33A8,8,0,0,0,96,16H80a8,8,0,0,0-8,8l0,96.474A7.533,7.533,0,0,1,64.48,128h-.4a8.062,8.062,0,0,1-5.736-2.354A7.917,7.917,0,0,1,56,120l0-96a8,8,0,0,0-8-8H32a8,8,0,0,0-7.982,7.468l-6.82,102.3A47.1,47.1,0,0,0,30.89,162.2,30.9,30.9,0,0,1,40,184.2v14.5a147.622,147.622,0,0,1-7.59,46.768,8,8,0,0,0-.4,2.53H32v63.667c0,53.525,2.254,107.711,6.7,161.052a25.39,25.39,0,0,0,50.6,0c2.041-24.494,3.6-49.167,4.708-73.871A215.414,215.414,0,0,0,256,472a215.066,215.066,0,0,0,169.123-81.622c.027.14.05.28.078.42a210.138,210.138,0,0,1,2.462,67.4l-.439,3.516A30.506,30.506,0,1,0,488,465.494V248.5l6.4-51.242a206.524,206.524,0,0,0,.18-49.752ZM466.157,42.8l12.537,106.573a190.438,190.438,0,0,1-.166,45.9L472.938,240H440V120.568A127.6,127.6,0,0,1,466.157,42.8ZM33.163,126.828,39.484,32H40l0,88a24.019,24.019,0,0,0,24.08,24h.4a23.552,23.552,0,0,0,23.525-23.526L88,32h.516l6.321,94.828A31.1,31.1,0,0,1,85.8,150.89,46.8,46.8,0,0,0,72,184.2v14.5A163.539,163.539,0,0,0,77.287,240H50.713A163.539,163.539,0,0,0,56,198.7V184.2A46.792,46.792,0,0,0,42.2,150.89,31.1,31.1,0,0,1,33.163,126.828ZM73.356,471.391a9.388,9.388,0,0,1-18.712,0C50.235,418.49,48,364.751,48,311.667V256H80v55.667C80,364.751,77.765,418.49,73.356,471.391ZM256,456a197.767,197.767,0,0,1-92-22.369A201.827,201.827,0,0,1,94.96,374.607q1.028-31.531,1.04-62.94V248h-.011a8,8,0,0,0-.4-2.53A147.622,147.622,0,0,1,88,198.7V184.2A30.9,30.9,0,0,1,97.109,162.2,47.1,47.1,0,0,0,110.8,125.763l-.454-6.812A199.991,199.991,0,0,1,424,147.48V248h.011a8,8,0,0,0,.4,2.53,83.335,83.335,0,0,1,2.292,44.431l-.506,2.277a225.029,225.029,0,0,0-4.385,70.605A199.264,199.264,0,0,1,256,456Zm216,9.494A14.522,14.522,0,0,1,457.494,480,14.506,14.506,0,0,1,443.1,463.694l.439-3.516a226.153,226.153,0,0,0-2.649-72.518,209.227,209.227,0,0,1,.924-86.952l.506-2.276A99.36,99.36,0,0,0,442.467,256H472Z"/><rect x="112" y="208" width="16" height="16"/><rect x="144" y="208" width="32" height="16"/><rect x="112" y="240" width="32" height="16"/><rect x="160" y="240" width="16" height="16"/><rect x="112" y="272" width="16" height="16"/><rect x="144" y="272" width="32" height="16"/><path d="M403.578,240.845l-13.615-6.808-14.808-29.615A8,8,0,0,0,368,200H320V176a8,8,0,0,0-8-8H216a8,8,0,0,0-8,8v24h-8a8,8,0,0,0-8,8v80a8,8,0,0,0,8,8h25.376a24,24,0,0,0,45.248,0h74.752a24,24,0,0,0,45.248,0H400a8,8,0,0,0,8-8V248A8,8,0,0,0,403.578,240.845ZM224,184h80v16H224Zm16,32h48v16H240Zm8,80a8,8,0,1,1,8-8A8.009,8.009,0,0,1,248,296Zm72-16H270.624a24,24,0,0,0-45.248,0H208V216h16v24a8,8,0,0,0,8,8h64a8,8,0,0,0,8-8V216h16Zm51.056-48H336V216h27.056ZM368,296a8,8,0,1,1,8-8A8.009,8.009,0,0,1,368,296Zm24-16h-1.376a24,24,0,0,0-45.248,0H336V248h46.111L392,252.944Z"/></g></svg>
