<?xml version="1.0"?>
<svg xmlns="http://www.w3.org/2000/svg" viewBox="0 0 512 512" width="512" height="512"><g id="outline"><path d="M32,384a8,8,0,0,0-7.761,6.06l-8,32A8,8,0,0,0,24,432H41.754l14.485,57.94A8,8,0,0,0,64,496H448a8,8,0,0,0,7.761-6.06L470.246,432H488a8,8,0,0,0,7.761-9.94l-8-32A8,8,0,0,0,480,384H454.246l-12-48H448a8,8,0,0,0,7.761-6.06L470.246,272H488a8,8,0,0,0,7.761-9.94l-8-32A8,8,0,0,0,480,224H454.246l-14.485-57.94A8,8,0,0,0,432,160H376V72a56.064,56.064,0,0,0-56-56H192a56.064,56.064,0,0,0-56,56v88H80a8,8,0,0,0-7.761,6.06L57.754,224H32a8,8,0,0,0-7.761,6.06l-8,32A8,8,0,0,0,24,272H41.754l14.485,57.94A8,8,0,0,0,64,336h5.754l-12,48Zm6.246,16H112v16H34.246ZM384,480H128V176H384ZM58.246,432H112v48H70.246Zm383.508,48H400V432h53.754Zm36-64H400V400h73.754Zm-40-32H400V336h25.754Zm4-64H400V272h53.754Zm36-64H400V240h73.754Zm-40-32H400V176h25.754ZM152,72a40.045,40.045,0,0,1,40-40H320a40.045,40.045,0,0,1,40,40v88H152ZM86.246,176H112v48H74.246Zm-48,64H112v16H34.246Zm20,32H112v48H70.246Zm28,64H112v48H74.246Z"/><path d="M320,48a24.028,24.028,0,0,0-24,24,8,8,0,0,1-16,0,24,24,0,0,0-48,0,8,8,0,0,1-16,0,24,24,0,0,0-48,0v48a24.028,24.028,0,0,0,24,24H320a24.028,24.028,0,0,0,24-24V72A24.028,24.028,0,0,0,320,48Zm8,72a8.009,8.009,0,0,1-8,8H192a8.009,8.009,0,0,1-8-8V72a8,8,0,0,1,16,0,24,24,0,0,0,48,0,8,8,0,0,1,16,0,24,24,0,0,0,48,0,8,8,0,0,1,16,0Z"/><path d="M256,440A112,112,0,1,0,144,328,112.127,112.127,0,0,0,256,440Zm0-208a96,96,0,1,1-96,96A96.108,96.108,0,0,1,256,232Z"/><path d="M256,408a79.581,79.581,0,0,0,47.945-16H304v-.044A79.923,79.923,0,0,0,336,328H320a63.72,63.72,0,0,1-16.045,42.316A32,32,0,0,0,240,372v17.975A64.116,64.116,0,0,1,192,328H176A80.091,80.091,0,0,0,256,408Zm0-36a16,16,0,0,1,32,0v11.39a63.736,63.736,0,0,1-8,3.923V368H264v23.482a64.2,64.2,0,0,1-8,.518Z"/><path d="M208,296a8,8,0,0,1,16,0v8h16v-8a24,24,0,0,0-48,0v8h16Z"/><path d="M288,296a8,8,0,0,1,16,0v8h16v-8a24,24,0,0,0-48,0v8h16Z"/></g></svg>
